<svg xmlns="http://www.w3.org/2000/svg" xmlns:xlink="http://www.w3.org/1999/xlink" viewBox="0,0,256,256" width="32px" height="32px" fill-rule="nonzero"><g fill-opacity="0.56863" fill="#000000" fill-rule="nonzero" stroke="none" stroke-width="1" stroke-linecap="butt" stroke-linejoin="miter" stroke-miterlimit="10" stroke-dasharray="" stroke-dashoffset="0" font-family="none" font-weight="none" font-size="none" text-anchor="none" style="mix-blend-mode: normal"><g transform="scale(8,8)"><path d="M30.62891,8.98828c-0.36563,0.04219 -0.92969,0.21094 -0.92969,0.21094c0,0 -8.19961,0.9 -11.59961,1c0.1,0.5 0.40078,0.9 0.80078,1c0.7,0.1 1.2,0 2.5,0c1.2,-0.1 2.19883,-0.09961 2.79883,-0.09961v4.90039h-6.19922c0,0 0.09922,1.19922 1.19922,1.19922h5v3.40039c0,0.7 -0.49922,1.09961 -1.19922,1.09961c-0.7,0 -1.2,-0.09961 -2,-0.09961c0.1,0.2 0.20039,0.69961 0.90039,1.09961c0.5,0.2 0.79883,0.30078 1.29883,0.30078c1.5,0 2.30078,-0.90078 2.30078,-2.30078v-3.5h6.09961c0.4,0 0.40078,-1.19961 0.30078,-1.09961h-6.5v-4.90039c0.2,0 0.59961,-0.09961 1.09961,-0.09961c2.1,-0.1 3.50039,-0.40039 4.40039,-0.40039c0,0 0.6,-1.39922 0,-1.69922c-0.05,-0.025 -0.14961,-0.02578 -0.27148,-0.01172zM3.30078,9c0,0 -1.20156,-0.00039 -1.60156,1.09961c-0.1,0.4 -0.79922,2.00078 -1.69922,3.80078c0.3,0 1.20078,-0.09961 1.80078,-1.09961c0.1,-0.3 0.4,-0.50039 0.5,-0.90039h1.5c0,0.5 -0.10156,3.60039 -0.10156,3.90039h-2.59961c-0.6,0 -0.79883,1.19922 -0.79883,1.19922h3.19922c-0.2,2.4 -1.4,4.10078 -3.5,5.80078c1,0.3 1.99961,-0.00039 2.59961,-0.40039c0,0 1.20078,-0.90078 1.80078,-3.30078l2.5,2.90039c0,0 0.40039,-1.4 -0.09961,-2c-0.4,-0.5 -1.20117,-1.40078 -1.70117,-1.80078l-0.69922,0.60156c0.2,-0.7 0.40039,-1.10078 0.40039,-1.80078h3.19922c0,0 -0.00039,-1.19922 -0.40039,-1.19922h-2.69922c0.1,-1.3 0.09961,-2.80039 0.09961,-3.90039h2.40039c0,0 0.09961,-1.09961 -0.40039,-1.09961h-4.40039c0.2,-0.7 0.40117,-1.10078 0.70117,-1.80078zM9,11v11h1.19922l0.40039,1.30078l2.09961,-1.30078h2.30078v-11zM29.28711,12.17773c-0.16875,0.00938 -0.33633,0.07266 -0.48633,0.22266l-1.80078,2.40039l1,0.69922c1.1,-1.3 2.30078,-2.90039 2.30078,-2.90039c0,0 -0.50742,-0.45 -1.01367,-0.42187zM10.19922,12.19922h3.5v8.60156h-1.19922l-1.40039,0.89844l-0.29883,-0.89844h-0.60156zM20.12891,12.34766c-0.42187,-0.02813 -0.92969,0.25195 -0.92969,0.25195c0,0 2.00156,2.80039 2.10156,2.90039l1,-0.69922c0,0 -1.30078,-1.80078 -1.80078,-2.30078c-0.1,-0.1 -0.23047,-0.14297 -0.37109,-0.15234z"></path></g></g></svg>