<svg xmlns="http://www.w3.org/2000/svg" xmlns:xlink="http://www.w3.org/1999/xlink" viewBox="0,0,256,256" width="50px" height="50px" fill-rule="nonzero"><g fill-opacity="0.56863" fill="#000000" fill-rule="nonzero" stroke="none" stroke-width="1" stroke-linecap="butt" stroke-linejoin="miter" stroke-miterlimit="10" stroke-dasharray="" stroke-dashoffset="0" font-family="none" font-weight="none" font-size="none" text-anchor="none" style="mix-blend-mode: normal"><g transform="scale(5.12,5.12)"><path d="M25,3c-12.15,0 -22,9.85 -22,22c0,12.15 9.85,22 22,22c12.15,0 22,-9.85 22,-22c0,-12.15 -9.85,-22 -22,-22zM21,11h17l-1.01953,0.88086c0,0.04 0.01953,0.07914 0.01953,0.11914v5.2793c0.6,0.34 1,0.9807 1,1.7207v6c0,1.1 -0.9,2 -2,2c-1.1,0 -2,-0.9 -2,-2v-6c0,-0.74 0.4,-1.3807 1,-1.7207v-3.70898l-3.58984,3.08008c0.35,0.7 0.58984,1.54984 0.58984,2.58984c0,2.72 -1.5193,4.06953 -3.0293,5.26953c-0.47,0.48 -1.02148,1.00055 -1.02148,1.81055c0,0.8 0.55117,1.25031 0.95117,1.57031l1.28906,1.0293c1.59,1.36 3.03125,2.61062 3.03125,5.14063c0,3.45 -3.29023,6.93945 -9.49023,6.93945c-5.23,0 -7.75,-2.53 -7.75,-5.25c0,-1.32 0.6493,-3.19047 2.7793,-4.48047c2.23,-1.39 5.26063,-1.57945 6.89063,-1.68945c-0.51,-0.66 -1.08984,-1.35 -1.08984,-2.5c0,-0.61 0.18914,-0.97969 0.36914,-1.42969c-0.4,0.04 -0.80016,0.08008 -1.16016,0.08008c-3.8,0 -5.97023,-2.88047 -5.99023,-5.73047h-6.7793zM24.26953,14.24023c-0.93,0 -1.93953,0.4707 -2.51953,1.2207c-0.61,0.76 -0.80078,1.74922 -0.80078,2.69922c0,2.46 1.42172,6.53906 4.51172,6.53906c0.91,0 1.87898,-0.4393 2.45898,-1.0293c0.82,-0.85 0.90039,-2.01992 0.90039,-2.66992c0,-2.65 -1.55078,-6.75977 -4.55078,-6.75977zM26.03906,30.60938c-0.32,0 -2.2693,0.06984 -3.7793,0.58984c-0.8,0.3 -3.09961,1.17125 -3.09961,3.78125c0,2.61 2.47984,4.48047 6.33984,4.48047c3.47,0 5.30078,-1.7007 5.30078,-3.9707c0,-1.87 -1.17992,-2.85984 -3.91992,-4.83984c-0.29,-0.04 -0.4718,-0.04102 -0.8418,-0.04102z"></path></g></g></svg>